<svg id="visual" viewBox="0 0 900 600" width="900" height="600" xmlns="http://www.w3.org/2000/svg" xmlns:xlink="http://www.w3.org/1999/xlink" version="1.1"><rect x="0" y="0" width="900" height="600" fill="#FCAF3C"></rect><path d="M0 422L129 406L257 441L386 387L514 426L643 391L771 366L900 443L900 601L771 601L643 601L514 601L386 601L257 601L129 601L0 601Z" fill="#f5730a"></path><path d="M0 404L129 420L257 452L386 402L514 412L643 466L771 406L900 472L900 601L771 601L643 601L514 601L386 601L257 601L129 601L0 601Z" fill="#da5b09"></path><path d="M0 503L129 471L257 494L386 443L514 491L643 493L771 447L900 480L900 601L771 601L643 601L514 601L386 601L257 601L129 601L0 601Z" fill="#be4407"></path><path d="M0 491L129 505L257 492L386 518L514 513L643 508L771 518L900 521L900 601L771 601L643 601L514 601L386 601L257 601L129 601L0 601Z" fill="#a32d04"></path><path d="M0 573L129 562L257 549L386 529L514 561L643 562L771 550L900 565L900 601L771 601L643 601L514 601L386 601L257 601L129 601L0 601Z" fill="#871400"></path></svg>